# Blender v2.92.0 OBJ File: 'first level.blend'
# www.blender.org
mtllib boss portal.1.mtl
o Circle.002
v -26.403208 101.482353 -158.825684
v -22.406975 104.892464 -158.825684
v -19.691420 109.444977 -158.825684
v 19.691332 109.445007 -158.825684
v 22.406889 104.892509 -158.825684
v 18.223036 112.832726 -158.825684
v -18.223124 112.832687 -158.825684
v -0.000004 133.879547 -158.825684
v -11.574444 128.172791 -158.825684
v -8.792315 131.592957 -158.825684
v -4.905434 133.320999 -158.825684
v 4.905354 133.321014 -158.825684
v 8.792237 131.592972 -158.825684
v 11.574367 128.172821 -158.825684
v 13.042663 124.785095 -158.825684
v -13.042740 124.785080 -158.825684
v -31.247299 4.802902 -158.825699
v -39.770267 11.797523 -158.825699
v -21.523508 -0.394569 -158.825699
v -10.972582 -3.595154 -158.825699
v 0.000015 -4.675858 -158.825699
v 10.972611 -3.595146 -158.825699
v 21.523533 -0.394554 -158.825699
v 31.247320 4.802925 -158.825699
v 39.770290 11.797550 -158.825699
v 46.764908 20.320526 -158.825699
v 51.962376 30.044319 -158.825699
v 55.162949 40.595245 -158.825684
v 56.243645 51.567844 -158.825684
v 55.162926 62.540440 -158.825684
v 51.962337 73.091362 -158.825684
v 46.764851 82.815147 -158.825684
v 39.770214 91.338104 -158.825684
v 31.247227 98.332718 -158.825684
v -31.247301 98.332680 -158.825684
v -39.770267 91.338058 -158.825684
v -46.764889 82.815079 -158.825684
v -51.962353 73.091301 -158.825684
v -55.162945 62.540382 -158.825684
v -56.243652 51.567791 -158.825684
v -55.162945 40.595203 -158.825684
v -51.962360 30.044281 -158.825699
v -46.764889 20.320496 -158.825699
v 26.403122 101.482407 -158.825684
v 26.403122 101.482407 -160.642792
v 31.247227 98.332718 -160.642792
v -31.247299 4.802902 -160.642807
v -39.770267 11.797523 -160.642807
v -21.523508 -0.394569 -160.642807
v -10.972582 -3.595154 -160.642807
v 0.000015 -4.675858 -160.642807
v 10.972611 -3.595139 -160.642807
v 21.523533 -0.394554 -160.642807
v 31.247320 4.802925 -160.642807
v 39.770290 11.797550 -160.642807
v 46.764908 20.320526 -160.642807
v 51.962376 30.044319 -160.642807
v 55.162949 40.595245 -160.642792
v 56.243645 51.567844 -160.642792
v 55.162926 62.540440 -160.642792
v 51.962337 73.091362 -160.642792
v 46.764851 82.815147 -160.642792
v 39.770214 91.338104 -160.642792
v -39.770267 91.338058 -160.642792
v -31.247301 98.332680 -160.642792
v -46.764889 82.815079 -160.642792
v -51.962353 73.091301 -160.642792
v -55.162945 62.540382 -160.642792
v -56.243652 51.567791 -160.642792
v -55.162945 40.595203 -160.642792
v -51.962360 30.044281 -160.642807
v -46.764889 20.320496 -160.642807
v 13.042663 124.785095 -160.642792
v 18.223036 112.832726 -160.642792
v -0.000004 133.879547 -160.642792
v 4.905354 133.321014 -160.642792
v -11.574444 128.172791 -160.642792
v -8.792315 131.592957 -160.642792
v -4.905434 133.320999 -160.642792
v 8.792237 131.592972 -160.642792
v 11.574367 128.172821 -160.642792
v -13.042740 124.785080 -160.642792
v -26.403208 101.482353 -160.642792
v -22.406975 104.892464 -160.642792
v -19.691420 109.444977 -160.642792
v 19.691332 109.445007 -160.642792
v 22.406889 104.892509 -160.642792
v -18.223124 112.832687 -160.642792
vt 0.000000 0.000000
vt 0.000000 0.000000
vt 0.000000 0.000000
vt 0.000000 0.000000
vt 0.000000 0.000000
vt 0.000000 0.000000
vt 0.000000 0.000000
vt 0.000000 0.000000
vt 0.000000 0.000000
vt 0.000000 0.000000
vt 0.000000 0.000000
vt 0.000000 0.000000
vt 0.000000 0.000000
vt 0.000000 0.000000
vt 0.000000 0.000000
vt 0.000000 0.000000
vt 0.000000 0.000000
vt 0.000000 0.000000
vt 0.000000 0.000000
vt 0.000000 0.000000
vt 0.000000 0.000000
vt 0.000000 0.000000
vt 0.000000 0.000000
vt 0.000000 0.000000
vt 0.000000 0.000000
vt 0.000000 0.000000
vt 0.000000 0.000000
vt 0.000000 0.000000
vt 0.000000 0.000000
vt 0.000000 0.000000
vt 0.000000 0.000000
vt 0.000000 0.000000
vt 0.000000 0.000000
vt 0.000000 0.000000
vt 0.000000 0.000000
vt 0.000000 0.000000
vt 0.000000 0.000000
vt 0.000000 0.000000
vt 0.000000 0.000000
vt 0.000000 0.000000
vt 0.000000 0.000000
vt 0.000000 0.000000
vt 0.000000 0.000000
vt 0.000000 0.000000
vt 0.000000 0.000000
vt 0.000000 0.000000
vt 0.000000 0.000000
vt 0.000000 0.000000
vt 0.000000 0.000000
vt 0.000000 0.000000
vt 0.000000 0.000000
vt 0.000000 0.000000
vt 0.000000 0.000000
vt 0.000000 0.000000
vt 0.000000 0.000000
vt 0.000000 0.000000
vt 0.000000 0.000000
vt 0.000000 0.000000
vt 0.000000 0.000000
vt 0.000000 0.000000
vt 0.000000 0.000000
vt 0.000000 0.000000
vt 0.000000 0.000000
vt 0.000000 0.000000
vt 0.000000 0.000000
vt 0.000000 0.000000
vt 0.000000 0.000000
vt 0.000000 0.000000
vt 0.000000 0.000000
vt 0.000000 0.000000
vt 0.000000 0.000000
vt 0.000000 0.000000
vt 0.000000 0.000000
vt 0.000000 0.000000
vt 0.000000 0.000000
vt 0.000000 0.000000
vt 0.000000 0.000000
vt 0.000000 0.000000
vt 0.000000 0.000000
vt 0.000000 0.000000
vt 0.000000 0.000000
vt 0.000000 0.000000
vt 0.000000 0.000000
vt 0.000000 0.000000
vt 0.000000 0.000000
vt 0.000000 0.000000
vt 0.000000 0.000000
vt 0.000000 0.000000
vn -0.0000 -0.0000 1.0000
vn 0.0000 0.0000 -1.0000
vn 0.9952 0.0980 0.0000
vn -0.9175 0.3977 0.0000
vn 0.5451 0.8384 0.0000
vn 0.9175 0.3977 0.0000
vn 0.9569 0.2903 0.0000
vn -0.6344 -0.7730 0.0000
vn 0.1131 0.9936 0.0000
vn 0.8819 0.4714 0.0000
vn -0.5451 0.8384 0.0000
vn -0.4714 -0.8819 0.0000
vn -0.7758 0.6310 0.0000
vn 0.7730 0.6344 0.0000
vn 0.6491 0.7607 0.0000
vn -0.2903 -0.9569 0.0000
vn -0.4062 0.9138 0.0000
vn 0.6344 0.7730 0.0000
vn -0.0980 -0.9952 -0.0000
vn 0.4062 0.9138 -0.0000
vn -0.6344 0.7730 0.0000
vn 0.0980 -0.9952 -0.0000
vn 0.7758 0.6310 0.0000
vn -0.7730 0.6344 0.0000
vn 0.2903 -0.9569 0.0000
vn -0.1131 0.9936 -0.0000
vn -0.8819 0.4714 0.0000
vn 0.4714 -0.8819 0.0000
vn -0.9569 0.2903 0.0000
vn 0.6344 -0.7730 0.0000
vn -0.9952 0.0980 0.0000
vn 0.7730 -0.6344 0.0000
vn -0.6491 0.7607 0.0000
vn -0.9952 -0.0980 0.0000
vn 0.8819 -0.4714 0.0000
vn -0.8588 0.5123 0.0000
vn -0.9569 -0.2903 0.0000
vn 0.9569 -0.2903 0.0000
vn 0.8588 0.5123 0.0000
vn -0.8819 -0.4714 0.0000
vn 0.9952 -0.0980 0.0000
vn -0.7730 -0.6344 0.0000
vn -0.7757 0.6310 0.0000
vn 0.7757 0.6310 0.0000
usemtl portal
s off
f 39/1/1 43/2/1 20/3/1
f 4/4/1 6/5/1 3/6/1
f 6/5/1 15/7/1 7/8/1
f 3/6/1 6/5/1 7/8/1
f 15/7/1 14/9/1 12/10/1
f 14/9/1 13/11/1 12/10/1
f 12/10/1 8/12/1 15/7/1
f 8/12/1 11/13/1 16/14/1
f 11/13/1 10/15/1 9/16/1
f 16/14/1 11/13/1 9/16/1
f 16/14/1 7/8/1 15/7/1
f 15/7/1 8/12/1 16/14/1
f 5/17/1 4/4/1 2/18/1
f 4/4/1 3/6/1 2/18/1
f 33/19/1 34/20/1 35/21/1
f 34/20/1 44/22/1 1/23/1
f 44/22/1 5/17/1 2/18/1
f 1/23/1 35/21/1 34/20/1
f 35/21/1 36/24/1 28/25/1
f 44/22/1 2/18/1 1/23/1
f 32/26/1 33/19/1 35/21/1
f 30/27/1 31/28/1 32/26/1
f 28/25/1 29/29/1 30/27/1
f 26/30/1 27/31/1 28/25/1
f 24/32/1 25/33/1 28/25/1
f 25/33/1 26/30/1 28/25/1
f 22/34/1 23/35/1 24/32/1
f 20/3/1 21/36/1 22/34/1
f 17/37/1 19/38/1 20/3/1
f 43/2/1 18/39/1 20/3/1
f 18/39/1 17/37/1 20/3/1
f 41/40/1 42/41/1 43/2/1
f 39/1/1 40/42/1 41/40/1
f 37/43/1 38/44/1 39/1/1
f 35/21/1 28/25/1 32/26/1
f 36/24/1 37/43/1 28/25/1
f 28/25/1 30/27/1 32/26/1
f 20/3/1 22/34/1 24/32/1
f 39/1/1 41/40/1 43/2/1
f 37/43/1 39/1/1 28/25/1
f 20/3/1 24/32/1 39/1/1
f 24/32/1 28/25/1 39/1/1
f 68/45/2 50/46/2 72/47/2
f 86/48/2 85/49/2 74/50/2
f 74/50/2 88/51/2 73/52/2
f 85/49/2 88/51/2 74/50/2
f 73/52/2 76/53/2 81/54/2
f 81/54/2 76/53/2 80/55/2
f 76/53/2 73/52/2 75/56/2
f 75/56/2 82/57/2 79/58/2
f 79/58/2 77/59/2 78/60/2
f 82/57/2 77/59/2 79/58/2
f 82/57/2 73/52/2 88/51/2
f 73/52/2 82/57/2 75/56/2
f 87/61/2 84/62/2 86/48/2
f 86/48/2 84/62/2 85/49/2
f 63/63/2 65/64/2 46/65/2
f 46/65/2 83/66/2 45/67/2
f 45/67/2 84/62/2 87/61/2
f 83/66/2 46/65/2 65/64/2
f 65/64/2 58/68/2 64/69/2
f 45/67/2 83/66/2 84/62/2
f 62/70/2 65/64/2 63/63/2
f 60/71/2 62/70/2 61/72/2
f 58/68/2 60/71/2 59/73/2
f 56/74/2 58/68/2 57/75/2
f 54/76/2 58/68/2 55/77/2
f 55/77/2 58/68/2 56/74/2
f 52/78/2 54/76/2 53/79/2
f 50/46/2 52/78/2 51/80/2
f 47/81/2 50/46/2 49/82/2
f 72/47/2 50/46/2 48/83/2
f 48/83/2 50/46/2 47/81/2
f 70/84/2 72/47/2 71/85/2
f 68/45/2 70/84/2 69/86/2
f 66/87/2 68/45/2 67/88/2
f 65/64/2 62/70/2 58/68/2
f 64/69/2 58/68/2 66/87/2
f 58/68/2 62/70/2 60/71/2
f 50/46/2 54/76/2 52/78/2
f 68/45/2 72/47/2 70/84/2
f 66/87/2 58/68/2 68/45/2
f 50/46/2 68/45/2 54/76/2
f 54/76/2 68/45/2 58/68/2
f 29/29/3 60/71/3 30/27/3
f 7/8/4 85/49/4 3/6/4
f 34/20/5 45/67/5 44/22/5
f 6/5/6 73/52/6 15/7/6
f 30/27/7 61/72/7 31/28/7
f 16/14/4 88/51/4 7/8/4
f 18/39/8 47/81/8 17/37/8
f 12/10/9 75/56/9 8/12/9
f 31/28/10 62/70/10 32/26/10
f 1/23/11 65/64/11 35/21/11
f 17/37/12 49/82/12 19/38/12
f 10/15/13 77/59/13 9/16/13
f 32/26/14 63/63/14 33/19/14
f 44/22/15 87/61/15 5/17/15
f 19/38/16 50/46/16 20/3/16
f 11/13/17 78/60/17 10/15/17
f 33/19/18 46/65/18 34/20/18
f 20/3/19 51/80/19 21/36/19
f 13/11/20 76/53/20 12/10/20
f 35/21/21 64/69/21 36/24/21
f 21/36/22 52/78/22 22/34/22
f 14/9/23 80/55/23 13/11/23
f 36/24/24 66/87/24 37/43/24
f 22/34/25 53/79/25 23/35/25
f 8/12/26 79/58/26 11/13/26
f 37/43/27 67/88/27 38/44/27
f 23/35/28 54/76/28 24/32/28
f 15/7/6 81/54/6 14/9/6
f 38/44/29 68/45/29 39/1/29
f 24/32/30 55/77/30 25/33/30
f 9/16/4 82/57/4 16/14/4
f 39/1/31 69/86/31 40/42/31
f 25/33/32 56/74/32 26/30/32
f 2/18/33 83/66/33 1/23/33
f 40/42/34 70/84/34 41/40/34
f 26/30/35 57/75/35 27/31/35
f 3/6/36 84/62/36 2/18/36
f 42/41/37 70/84/37 71/85/37
f 27/31/38 58/68/38 28/25/38
f 5/17/39 86/48/39 4/4/39
f 42/41/40 72/47/40 43/2/40
f 28/25/41 59/73/41 29/29/41
f 4/4/6 74/50/6 6/5/6
f 43/2/42 48/83/42 18/39/42
f 29/29/3 59/73/3 60/71/3
f 7/8/4 88/51/4 85/49/4
f 34/20/5 46/65/5 45/67/5
f 6/5/6 74/50/6 73/52/6
f 30/27/7 60/71/7 61/72/7
f 16/14/4 82/57/4 88/51/4
f 18/39/8 48/83/8 47/81/8
f 12/10/9 76/53/9 75/56/9
f 31/28/10 61/72/10 62/70/10
f 1/23/11 83/66/11 65/64/11
f 17/37/12 47/81/12 49/82/12
f 10/15/43 78/60/43 77/59/43
f 32/26/14 62/70/14 63/63/14
f 44/22/15 45/67/15 87/61/15
f 19/38/16 49/82/16 50/46/16
f 11/13/17 79/58/17 78/60/17
f 33/19/18 63/63/18 46/65/18
f 20/3/19 50/46/19 51/80/19
f 13/11/20 80/55/20 76/53/20
f 35/21/21 65/64/21 64/69/21
f 21/36/22 51/80/22 52/78/22
f 14/9/44 81/54/44 80/55/44
f 36/24/24 64/69/24 66/87/24
f 22/34/25 52/78/25 53/79/25
f 8/12/26 75/56/26 79/58/26
f 37/43/27 66/87/27 67/88/27
f 23/35/28 53/79/28 54/76/28
f 15/7/6 73/52/6 81/54/6
f 38/44/29 67/88/29 68/45/29
f 24/32/30 54/76/30 55/77/30
f 9/16/4 77/59/4 82/57/4
f 39/1/31 68/45/31 69/86/31
f 25/33/32 55/77/32 56/74/32
f 2/18/33 84/62/33 83/66/33
f 40/42/34 69/86/34 70/84/34
f 26/30/35 56/74/35 57/75/35
f 3/6/36 85/49/36 84/62/36
f 42/41/37 41/40/37 70/84/37
f 27/31/38 57/75/38 58/68/38
f 5/17/39 87/61/39 86/48/39
f 42/41/40 71/85/40 72/47/40
f 28/25/41 58/68/41 59/73/41
f 4/4/6 86/48/6 74/50/6
f 43/2/42 72/47/42 48/83/42
